<svg width="18" height="18" viewBox="0 0 18 18" fill="none" xmlns="http://www.w3.org/2000/svg">
<path d="M14.2256 11.1504C13.8571 10.7667 13.4127 10.5615 12.9416 10.5615C12.4743 10.5615 12.026 10.7629 11.6423 11.1466L10.4418 12.3433C10.343 12.2901 10.2443 12.2407 10.1493 12.1913C10.0125 12.1229 9.88336 12.0583 9.77319 11.99C8.64868 11.2757 7.62674 10.345 6.64659 9.14069C6.17171 8.54044 5.8526 8.03517 5.62086 7.5223C5.93238 7.23737 6.2211 6.94105 6.50223 6.65612C6.6086 6.54975 6.71497 6.43958 6.82135 6.33321C7.61914 5.53541 7.61914 4.50208 6.82135 3.70428L5.78421 2.66715C5.66644 2.54938 5.54488 2.42781 5.4309 2.30624C5.20296 2.0707 4.96362 1.82757 4.71669 1.59962C4.34818 1.23492 3.9075 1.04117 3.44402 1.04117C2.98053 1.04117 2.53225 1.23492 2.15235 1.59962C2.14855 1.60342 2.14855 1.60342 2.14475 1.60722L0.853082 2.91029C0.366807 3.39656 0.0894783 3.98921 0.0286939 4.67683C-0.0624826 5.78615 0.264233 6.81948 0.514969 7.49571C1.13041 9.15588 2.04977 10.6945 3.42122 12.3433C5.08519 14.3302 7.08728 15.8991 9.37429 17.0047C10.2481 17.4188 11.4144 17.9088 12.7174 17.9924C12.7972 17.9962 12.8808 18 12.9568 18C13.8343 18 14.5714 17.6847 15.1488 17.0578C15.1526 17.0503 15.1602 17.0465 15.164 17.0389C15.3616 16.7995 15.5895 16.583 15.8288 16.3512C15.9922 16.1955 16.1593 16.0321 16.3227 15.8612C16.6988 15.4699 16.8964 15.014 16.8964 14.5467C16.8964 14.0756 16.695 13.6235 16.3113 13.2436L14.2256 11.1504ZM15.5857 15.1507C15.5819 15.1507 15.5819 15.1545 15.5857 15.1507C15.4375 15.3103 15.2856 15.4547 15.1222 15.6142C14.8753 15.8498 14.6245 16.0967 14.389 16.374C14.0053 16.7843 13.5532 16.9781 12.9606 16.9781C12.9036 16.9781 12.8428 16.9781 12.7858 16.9743C11.6575 16.9021 10.609 16.4614 9.82258 16.0853C7.67233 15.0444 5.78421 13.5665 4.21522 11.6936C2.91975 10.1322 2.05357 8.6886 1.47992 7.1386C1.12661 6.19264 0.997445 5.45563 1.05443 4.76041C1.09242 4.31593 1.26338 3.94742 1.5787 3.6321L2.87416 2.33663C3.06031 2.16188 3.25786 2.0669 3.45161 2.0669C3.69095 2.0669 3.8847 2.21127 4.00627 2.33284C4.01007 2.33664 4.01387 2.34043 4.01767 2.34423C4.24941 2.56078 4.46975 2.78492 4.70149 3.02426C4.81926 3.14583 4.94083 3.2674 5.0624 3.39276L6.09953 4.4299C6.50223 4.83259 6.50223 5.2049 6.09953 5.60759C5.98936 5.71777 5.88299 5.82794 5.77282 5.93431C5.4537 6.26103 5.14978 6.56495 4.81926 6.86127C4.81166 6.86887 4.80407 6.87267 4.80027 6.88027C4.47355 7.20698 4.53434 7.5261 4.60272 7.74264C4.60652 7.75404 4.61032 7.76544 4.61411 7.77684C4.88385 8.43027 5.26375 9.04571 5.8412 9.77892L5.845 9.78272C6.89353 11.0744 7.99904 12.0811 9.21853 12.8523C9.37429 12.9511 9.53385 13.0309 9.68581 13.1069C9.82258 13.1752 9.95174 13.2398 10.0619 13.3082C10.0771 13.3158 10.0923 13.3272 10.1075 13.3348C10.2367 13.3994 10.3582 13.4298 10.4836 13.4298C10.7989 13.4298 10.9965 13.2322 11.0611 13.1676L12.3603 11.8684C12.4895 11.7392 12.6946 11.5835 12.934 11.5835C13.1695 11.5835 13.3633 11.7316 13.481 11.8608C13.4848 11.8646 13.4848 11.8646 13.4886 11.8684L15.5819 13.9616C15.9732 14.3491 15.9732 14.748 15.5857 15.1507Z" fill="black"/>
<path d="M9.72758 4.28173C10.7229 4.44889 11.6271 4.91997 12.3489 5.64178C13.0707 6.3636 13.538 7.26777 13.709 8.26311C13.7507 8.51385 13.9673 8.6886 14.2142 8.6886C14.2446 8.6886 14.2712 8.6848 14.3016 8.681C14.5827 8.63541 14.7689 8.36948 14.7233 8.08836C14.5182 6.88407 13.9483 5.78615 13.0783 4.91617C12.2083 4.0462 11.1104 3.47634 9.90613 3.27119C9.625 3.22561 9.36287 3.41176 9.31348 3.68909C9.2641 3.96642 9.44645 4.23615 9.72758 4.28173Z" fill="black"/>
<path d="M17.9791 7.94019C17.6409 5.9571 16.7064 4.15257 15.2704 2.71654C13.8343 1.28051 12.0298 0.345947 10.0467 0.00783421C9.76937 -0.0415531 9.50724 0.148398 9.45785 0.425727C9.41226 0.706854 9.59842 0.968987 9.87954 1.01837C11.6499 1.3185 13.2645 2.15808 14.5485 3.43835C15.8326 4.72242 16.6684 6.33701 16.9685 8.10735C17.0103 8.35809 17.2269 8.53284 17.4738 8.53284C17.5042 8.53284 17.5308 8.52904 17.5612 8.52524C17.8385 8.48345 18.0284 8.21752 17.9791 7.94019Z" fill="black"/>
</svg>
